<?xml version="1.0" standalone="no"?><!DOCTYPE svg PUBLIC "-//W3C//DTD SVG 1.1//EN" "http://www.w3.org/Graphics/SVG/1.1/DTD/svg11.dtd"><svg t="1517044511128" class="icon" style="" viewBox="0 0 1024 1024" version="1.1" xmlns="http://www.w3.org/2000/svg" p-id="9881" xmlns:xlink="http://www.w3.org/1999/xlink" width="128" height="128"><defs><style type="text/css"></style></defs><path d="M64 919.3c0 22.5 18.2 40.7 40.7 40.7h285.1V634.2H64v285.1z m123-163.1h81.5v81.5H187v-81.5zM471.3 797.1h81.5V960h-81.5zM64 471.3h162.9v81.5H64zM471.3 471.3H308.4v81.4h162.9v162.9h81.4V308.4h-81.4zM634.2 634.2h162.9v162.9H634.2zM389.8 64H104.7C82.2 64 64 82.2 64 104.7v285.1h325.8V64zM268.5 267.5H187V186h81.5v81.5zM919.3 64H634.2v325.8H960V104.7c0-22.5-18.2-40.7-40.7-40.7z m-80.7 203.5h-81.5V186h81.5v81.5zM471.3 64h81.5v162.9h-81.5zM715.6 471.3H960v81.5H715.6z" fill="#13227a" p-id="9882" data-spm-anchor-id="a313x.7781069.0.i30" class="selected"></path><path d="M878.5 878.5H634.2V960h285.1c22.5 0 40.7-18.2 40.7-40.7V634.2h-81.5v244.3z" fill="#13227a" p-id="9883"></path></svg>